<svg width="65" height="26" viewBox="0 0 65 26" fill="none" xmlns="http://www.w3.org/2000/svg">
<path d="M51.8469 6.5C51.8469 10.0899 48.9024 13 45.2702 13C41.638 13 38.6936 10.0899 38.6936 6.5C38.6936 2.91015 41.638 2.84124e-07 45.2702 2.84124e-07C48.9024 2.84124e-07 51.8469 2.91015 51.8469 6.5Z" fill="#FF0080"/>
<path d="M51.8469 19.5C51.8469 23.0899 48.9024 26 45.2702 26C41.638 26 38.6936 23.0899 38.6936 19.5C38.6936 15.9102 41.638 13 45.2702 13C48.9024 13 51.8469 15.9102 51.8469 19.5Z" fill="#FF0080"/>
<path d="M32.1169 0C32.9806 -3.73117e-08 33.8358 0.168128 34.6337 0.494783C35.4316 0.821439 36.1566 1.30023 36.7673 1.90381C37.378 2.50739 37.8625 3.22394 38.193 4.01256C38.5235 4.80118 38.6936 5.64641 38.6936 6.5C38.6936 7.3536 38.5235 8.19883 38.193 8.98745C37.8625 9.77606 37.378 10.4926 36.7673 11.0962C36.1566 11.6998 35.4316 12.1786 34.6337 12.5052C33.8358 12.8319 32.9806 13 32.1169 13V0Z" fill="#FF0080"/>
<path d="M32.1169 13C32.9806 13 33.8358 13.1681 34.6337 13.4948C35.4316 13.8214 36.1566 14.3002 36.7673 14.9038C37.378 15.5074 37.8625 16.224 38.193 17.0126C38.5235 17.8012 38.6936 18.6464 38.6936 19.5C38.6936 20.3536 38.5235 21.1988 38.193 21.9875C37.8625 22.7761 37.378 23.4926 36.7673 24.0962C36.1566 24.6998 35.4316 25.1786 34.6337 25.5052C33.8358 25.8319 32.9806 26 32.1169 26V13Z" fill="#FF0080"/>
<path d="M65.0002 6.5C65.0002 10.0899 62.0557 13 58.4235 13C54.7913 13 51.8469 10.0899 51.8469 6.5C51.8469 2.91015 54.7913 2.84124e-07 58.4235 2.84124e-07C62.0557 2.84124e-07 65.0002 2.91015 65.0002 6.5Z" fill="#FF0080"/>
<path d="M65.0002 19.5C65.0002 23.0899 62.0557 26 58.4235 26C54.7913 26 51.8469 23.0899 51.8469 19.5C51.8469 15.9102 54.7913 13 58.4235 13C62.0557 13 65.0002 15.9102 65.0002 19.5Z" fill="#FF0080"/>
<path d="M0 0H2.70754C3.77548 0 4.60592 0.291865 5.19886 0.875594C5.7918 1.45932 6.08827 2.28497 6.08827 3.35254C6.08827 4.42323 5.79016 5.25825 5.19395 5.85758C4.60101 6.45692 3.7722 6.75659 2.70754 6.75659H0V0ZM1.48399 1.1659V5.58601H2.53064C3.19565 5.58601 3.70177 5.39716 4.04902 5.01945C4.39954 4.63862 4.5748 4.08455 4.5748 3.35722C4.5748 2.65175 4.3979 2.11017 4.0441 1.73246C3.69031 1.35475 3.18582 1.1659 2.53064 1.1659H1.48399Z" fill="#FF0080"/>
<path d="M9.00472 2.64083C8.69351 2.64083 8.43308 2.74228 8.22342 2.94518C8.01704 3.14808 7.90074 3.40717 7.87454 3.72245H10.1103C10.094 3.40093 9.98422 3.14028 9.78111 2.9405C9.58128 2.74072 9.32249 2.64083 9.00472 2.64083ZM10.13 5.22079H11.4469C11.3683 5.71399 11.1095 6.11199 10.6705 6.41478C10.2348 6.71445 9.69266 6.86428 9.04403 6.86428C8.23489 6.86428 7.59936 6.63329 7.13746 6.1713C6.67883 5.70931 6.44952 5.07564 6.44952 4.27028C6.44952 3.46804 6.67883 2.82812 7.13746 2.35053C7.59608 1.86981 8.21359 1.62945 8.98998 1.62945C9.75327 1.62945 10.3609 1.85732 10.813 2.31307C11.2651 2.76881 11.4911 3.37908 11.4911 4.14386V4.56058H7.8598V4.64486C7.8598 5.00384 7.96954 5.2957 8.18902 5.52046C8.41178 5.74209 8.70498 5.8529 9.0686 5.8529C9.33068 5.8529 9.55671 5.79671 9.74672 5.68434C9.93672 5.56884 10.0645 5.41432 10.13 5.22079Z" fill="#FF0080"/>
<path d="M12.0148 6.75659V1.73714H13.4005V2.63146H13.4299C13.5741 2.31307 13.7837 2.06959 14.0589 1.90102C14.3374 1.72934 14.6764 1.64349 15.0761 1.64349C15.6592 1.64349 16.1096 1.80894 16.4274 2.13982C16.7452 2.47071 16.904 2.93113 16.904 3.52111V6.75659H15.4692V3.80673C15.4692 3.47584 15.3873 3.22144 15.2235 3.04351C15.0597 2.86558 14.8189 2.77662 14.5012 2.77662C14.1834 2.77662 13.9279 2.87807 13.7346 3.08097C13.5446 3.28387 13.4496 3.5492 13.4496 3.87696V6.75659H12.0148Z" fill="#FF0080"/>
<path d="M18.3333 0.580608H19.7681V1.73714H20.7411V2.76725H19.7681V5.16928C19.7681 5.54699 19.9745 5.73584 20.3873 5.73584C20.5216 5.73584 20.6379 5.72804 20.7362 5.71243V6.71913C20.5691 6.75659 20.3414 6.77532 20.0531 6.77532C19.434 6.77532 18.9917 6.66919 18.7264 6.45692C18.4643 6.24466 18.3333 5.89348 18.3333 5.4034V2.76725H17.5913V1.73714H18.3333V0.580608Z" fill="#FF0080"/>
<path d="M23.3756 5.84822C23.6934 5.84822 23.962 5.76082 24.1815 5.58601C24.4042 5.40808 24.5156 5.18489 24.5156 4.91644V4.55122L23.4051 4.61677C23.1365 4.6355 22.9284 4.69949 22.781 4.80874C22.6369 4.918 22.5648 5.06159 22.5648 5.23952C22.5648 5.42681 22.6385 5.57508 22.7859 5.68434C22.9333 5.79359 23.1299 5.84822 23.3756 5.84822ZM22.9039 6.83619C22.3961 6.83619 21.9751 6.69416 21.641 6.4101C21.3069 6.12604 21.1398 5.76082 21.1398 5.31444C21.1398 4.85869 21.3167 4.50127 21.6705 4.24218C22.0243 3.98309 22.5304 3.83482 23.1889 3.79736L24.5156 3.72245V3.39C24.5156 3.15901 24.4354 2.97796 24.2748 2.84685C24.1176 2.71575 23.903 2.65019 23.6311 2.65019C23.369 2.65019 23.1545 2.70638 22.9874 2.81876C22.8236 2.93113 22.7237 3.08253 22.6877 3.27294H21.3757C21.4019 2.77974 21.623 2.3833 22.039 2.08363C22.4551 1.78084 23.0071 1.62945 23.695 1.62945C24.3698 1.62945 24.9104 1.7824 25.3166 2.08832C25.7228 2.39423 25.9259 2.80003 25.9259 3.30572V6.75659H24.5402V5.98869H24.5107C24.3666 6.2509 24.1471 6.45848 23.8522 6.61144C23.5574 6.76127 23.2413 6.83619 22.9039 6.83619Z" fill="#FF0080"/>
<path d="M26.6619 6.75659V0H28.0968V6.75659H26.6619Z" fill="#FF0080"/>
<path d="M3.09074 16.0652H0V9.28089H3.03753C3.69212 9.28089 4.21127 9.43291 4.59499 9.73694C4.97871 10.041 5.17058 10.4531 5.17058 10.9735C5.17058 11.3433 5.04482 11.6677 4.7933 11.9467C4.54501 12.2256 4.23384 12.3918 3.85979 12.445V12.4827C4.33703 12.5171 4.73042 12.688 5.03998 12.9951C5.34954 13.3023 5.50432 13.6784 5.50432 14.1235C5.50432 14.7222 5.28827 15.1955 4.85618 15.5434C4.42409 15.8913 3.83561 16.0652 3.09074 16.0652ZM1.46072 10.3387V12.1018H2.51032C2.90049 12.1018 3.20198 12.0235 3.4148 11.8667C3.62763 11.7069 3.73404 11.4828 3.73404 11.1944C3.73404 10.9217 3.64052 10.7117 3.4535 10.5644C3.26648 10.414 3.00206 10.3387 2.66026 10.3387H1.46072ZM1.46072 15.0074H2.7183C3.14072 15.0074 3.46156 14.9228 3.68083 14.7535C3.90333 14.5811 4.01457 14.3335 4.01457 14.0107C4.01457 13.6941 3.9001 13.4527 3.67116 13.2866C3.44544 13.1205 3.11653 13.0374 2.68444 13.0374H1.46072V15.0074Z" fill="#FF0080"/>
<path d="M8.14499 15.1531C8.45777 15.1531 8.72219 15.0654 8.93823 14.8899C9.1575 14.7112 9.26714 14.4871 9.26714 14.2175V13.8508L8.17401 13.9166C7.9096 13.9354 7.70484 13.9997 7.55974 14.1094C7.41785 14.2191 7.34691 14.3633 7.34691 14.5419C7.34691 14.73 7.41947 14.8789 7.56457 14.9886C7.70968 15.0983 7.90315 15.1531 8.14499 15.1531ZM7.68066 16.1452C7.18085 16.1452 6.76649 16.0026 6.43759 15.7173C6.10869 15.4321 5.94423 15.0654 5.94423 14.6172C5.94423 14.1595 6.11836 13.8007 6.46661 13.5405C6.81486 13.2804 7.31306 13.1315 7.96119 13.0939L9.26714 13.0186V12.6848C9.26714 12.4529 9.18814 12.2711 9.03013 12.1394C8.87535 12.0078 8.66415 11.942 8.39651 11.942C8.13854 11.942 7.92734 11.9984 7.76288 12.1112C7.60166 12.2241 7.5033 12.3761 7.46783 12.5673H6.1764C6.2022 12.0721 6.41985 11.674 6.82937 11.3731C7.23889 11.0691 7.78223 10.917 8.45939 10.917C9.12364 10.917 9.6557 11.0706 10.0555 11.3778C10.4554 11.685 10.6553 12.0924 10.6553 12.6002V16.0652H9.29132V15.2942H9.2623C9.12042 15.5575 8.90438 15.7659 8.61417 15.9195C8.32395 16.07 8.01278 16.1452 7.68066 16.1452Z" fill="#FF0080"/>
<path d="M11.4967 16.0652V11.0252H12.8607V11.9232H12.8897C13.0316 11.6035 13.2379 11.359 13.5088 11.1897C13.7829 11.0173 14.1166 10.9311 14.51 10.9311C15.084 10.9311 15.5274 11.0973 15.8402 11.4295C16.1529 11.7617 16.3093 12.2241 16.3093 12.8165V16.0652H14.897V13.1033C14.897 12.771 14.8164 12.5156 14.6551 12.3369C14.4939 12.1582 14.2569 12.0689 13.9441 12.0689C13.6313 12.0689 13.3798 12.1708 13.1896 12.3745C13.0025 12.5783 12.909 12.8447 12.909 13.1738V16.0652H11.4967Z" fill="#FF0080"/>
<path d="M18.6697 13.0468L20.4303 11.0252H22.0313L20.053 13.1879L22.128 16.0652H20.5029L19.018 14.0154L18.6504 14.4009V16.0652H17.238V9.28089H18.6504V13.0468H18.6697Z" fill="#FF0080"/>
</svg>
